Passive_0003_3plates.mot
version=1
nRows=39
nColumns=19
inDegrees=yes
endheader
time	ground_force_vx	ground_force_vy	ground_force_vz	ground_force_px	ground_force_py	ground_force_pz	1_ground_force_vx	1_ground_force_vy	1_ground_force_vz	1_ground_force_px	1_ground_force_py	1_ground_force_pz	ground_torque_x	ground_torque_y	ground_torque_z	1_ground_torque_x	1_ground_torque_y	1_ground_torque_z
0.315521	-31.818809	582.911363	35.630186	-0.436599	0.000000	0.194798	0.000000	0.000000	0.000000	0.000000	0.000000	0.000000	0.000000	-3.725898	0.000000	0.000000	0.000000	0.000000
0.315938	-31.904324	583.706373	35.608455	-0.436468	0.000000	0.194921	0.000000	0.000000	0.000000	0.000000	0.000000	0.000000	0.000000	-3.721299	0.000000	0.000000	0.000000	0.000000
0.316354	-31.950195	583.269109	35.149515	-0.436142	0.000000	0.194764	0.000000	0.000000	0.000000	0.000000	0.000000	0.000000	0.000000	-3.734120	0.000000	0.000000	0.000000	0.000000
0.316771	-31.905366	583.972995	35.169239	-0.436069	0.000000	0.194856	0.000000	0.000000	0.000000	0.000000	0.000000	0.000000	0.000000	-3.690329	0.000000	0.000000	0.000000	0.000000
0.317188	-31.970025	583.451097	34.865063	-0.435729	0.000000	0.195030	0.000000	0.000000	0.000000	0.000000	0.000000	0.000000	0.000000	-3.712016	0.000000	0.000000	0.000000	0.000000
0.317605	-32.123293	583.454637	34.667509	-0.435524	0.000000	0.194985	0.000000	0.000000	0.000000	0.000000	0.000000	0.000000	0.000000	-3.690055	0.000000	0.000000	0.000000	0.000000
0.318022	-32.166937	583.809473	34.514031	-0.435310	0.000000	0.194920	0.000000	0.000000	0.000000	0.000000	0.000000	0.000000	0.000000	-3.694175	0.000000	0.000000	0.000000	0.000000
0.318438	-32.228956	584.870294	34.514104	-0.435096	0.000000	0.195208	0.000000	0.000000	0.000000	0.000000	0.000000	0.000000	0.000000	-3.680788	0.000000	0.000000	0.000000	0.000000
0.318855	-32.077576	584.079458	34.533405	-0.434938	0.000000	0.194955	0.000000	0.000000	0.000000	0.000000	0.000000	0.000000	0.000000	-3.676598	0.000000	0.000000	0.000000	0.000000
0.319272	-31.945975	584.694715	34.313054	-0.434745	0.000000	0.195099	0.000000	0.000000	0.000000	0.000000	0.000000	0.000000	0.000000	-3.636999	0.000000	0.000000	0.000000	0.000000
0.319689	-31.791781	585.136630	34.136870	-0.434452	0.000000	0.195249	0.000000	0.000000	0.000000	0.000000	0.000000	0.000000	0.000000	-3.619257	0.000000	0.000000	0.000000	0.000000
0.320106	-31.815785	584.959759	34.067360	-0.434386	0.000000	0.194997	0.000000	0.000000	0.000000	0.000000	0.000000	0.000000	0.000000	-3.558193	0.000000	0.000000	0.000000	0.000000
0.320522	-31.593190	585.761290	34.197041	-0.433841	0.000000	0.195065	0.000000	0.000000	0.000000	0.000000	0.000000	0.000000	0.000000	-3.597185	0.000000	0.000000	0.000000	0.000000
0.320939	-31.286222	585.761079	34.257874	-0.433636	0.000000	0.195188	0.000000	0.000000	0.000000	0.000000	0.000000	0.000000	0.000000	-3.523043	0.000000	0.000000	0.000000	0.000000
0.321356	-31.155600	586.461527	34.038946	-0.433594	0.000000	0.195245	0.000000	0.000000	0.000000	0.000000	0.000000	0.000000	0.000000	-3.513965	0.000000	0.000000	0.000000	0.000000
0.321773	-31.199524	585.850671	33.906290	-0.433300	0.000000	0.195181	0.000000	0.000000	0.000000	0.000000	0.000000	0.000000	0.000000	-3.496547	0.000000	0.000000	0.000000	0.000000
0.322190	-31.285881	586.819637	33.797476	-0.433223	0.000000	0.195260	0.000000	0.000000	0.000000	0.000000	0.000000	0.000000	0.000000	-3.496208	0.000000	0.000000	0.000000	0.000000
0.322607	-31.263282	587.000126	33.795679	-0.432958	0.000000	0.195176	0.000000	0.000000	0.000000	0.000000	0.000000	0.000000	0.000000	-3.491741	0.000000	0.000000	0.000000	0.000000
0.323023	-30.979878	586.474398	33.746688	-0.432589	0.000000	0.195033	0.000000	0.000000	0.000000	0.000000	0.000000	0.000000	0.000000	-3.439426	0.000000	0.000000	0.000000	0.000000
0.323440	-31.128578	587.798617	33.793930	-0.432538	0.000000	0.195401	0.000000	0.000000	0.000000	0.000000	0.000000	0.000000	0.000000	-3.478362	0.000000	0.000000	0.000000	0.000000
0.323857	-30.998348	588.412760	33.618462	-0.432430	0.000000	0.195296	0.000000	0.000000	0.000000	0.000000	0.000000	0.000000	0.000000	-3.491117	0.000000	0.000000	0.000000	0.000000
0.324274	-30.800691	588.241875	33.833822	-0.432136	0.000000	0.195116	0.000000	0.000000	0.000000	0.000000	0.000000	0.000000	0.000000	-3.495587	0.000000	0.000000	0.000000	0.000000
0.324691	-30.883799	589.918253	33.812831	-0.431949	0.000000	0.195474	0.000000	0.000000	0.000000	0.000000	0.000000	0.000000	0.000000	-3.490747	0.000000	0.000000	0.000000	0.000000
0.325107	-30.731446	589.479775	33.898018	-0.431806	0.000000	0.195288	0.000000	0.000000	0.000000	0.000000	0.000000	0.000000	0.000000	-3.490873	0.000000	0.000000	0.000000	0.000000
0.325524	-30.642518	589.923608	34.092506	-0.431620	0.000000	0.195197	0.000000	0.000000	0.000000	0.000000	0.000000	0.000000	0.000000	-3.490836	0.000000	0.000000	0.000000	0.000000
0.325941	-30.747867	590.723830	34.244472	-0.431334	0.000000	0.195364	0.000000	0.000000	0.000000	0.000000	0.000000	0.000000	0.000000	-3.477607	0.000000	0.000000	0.000000	0.000000
0.326358	-30.616508	590.988876	34.046868	-0.431097	0.000000	0.195414	0.000000	0.000000	0.000000	0.000000	0.000000	0.000000	0.000000	-3.472985	0.000000	0.000000	0.000000	0.000000
0.326775	-30.855988	591.171602	33.918206	-0.430887	0.000000	0.195372	0.000000	0.000000	0.000000	0.000000	0.000000	0.000000	0.000000	-3.525151	0.000000	0.000000	0.000000	0.000000
0.327191	-30.681466	591.519927	33.915739	-0.430908	0.000000	0.195399	0.000000	0.000000	0.000000	0.000000	0.000000	0.000000	0.000000	-3.481441	0.000000	0.000000	0.000000	0.000000
0.327608	-30.743723	592.059872	34.002723	-0.430408	0.000000	0.195352	0.000000	0.000000	0.000000	0.000000	0.000000	0.000000	0.000000	-3.524864	0.000000	0.000000	0.000000	0.000000
0.328025	-30.349421	592.759642	33.937744	-0.430369	0.000000	0.195534	0.000000	0.000000	0.000000	0.000000	0.000000	0.000000	0.000000	-3.555112	0.000000	0.000000	0.000000	0.000000
0.328442	-30.436877	593.466696	33.956015	-0.430181	0.000000	0.195312	0.000000	0.000000	0.000000	0.000000	0.000000	0.000000	0.000000	-3.515652	0.000000	0.000000	0.000000	0.000000
0.328859	-30.391973	593.733451	33.717402	-0.429953	0.000000	0.195491	0.000000	0.000000	0.000000	0.000000	0.000000	0.000000	0.000000	-3.545899	0.000000	0.000000	0.000000	0.000000
0.329275	-30.239856	593.381769	33.713912	-0.429792	0.000000	0.195366	0.000000	0.000000	0.000000	0.000000	0.000000	0.000000	0.000000	-3.506700	0.000000	0.000000	0.000000	0.000000
0.329692	-30.214788	594.528930	33.865722	-0.429667	0.000000	0.195541	0.000000	0.000000	0.000000	0.000000	0.000000	0.000000	0.000000	-3.489033	0.000000	0.000000	0.000000	0.000000
0.330109	-30.149093	594.533176	33.777246	-0.429369	0.000000	0.195422	0.000000	0.000000	0.000000	0.000000	0.000000	0.000000	0.000000	-3.506343	0.000000	0.000000	0.000000	0.000000
0.330526	-30.039258	594.886181	33.732571	-0.429218	0.000000	0.195431	0.000000	0.000000	0.000000	0.000000	0.000000	0.000000	0.000000	-3.506177	0.000000	0.000000	0.000000	0.000000
0.330943	-29.928342	596.117121	33.689304	-0.429170	0.000000	0.195574	0.000000	0.000000	0.000000	0.000000	0.000000	0.000000	0.000000	-3.518879	0.000000	0.000000	0.000000	0.000000
0.331359	-30.103178	596.209457	33.512913	-0.428938	0.000000	0.195530	0.000000	0.000000	0.000000	0.000000	0.000000	0.000000	0.000000	-3.483824	0.000000	0.000000	0.000000	0.000000
